<svg width="70" height="70" viewBox="0 0 70 70" fill="none" xmlns="http://www.w3.org/2000/svg">
<g clip-path="url(#clip0)">
<path d="M49.3676 15.2688C52.6255 20.8785 56.2465 27.2144 59.1412 32.1012C49.9106 35.7222 44.4808 41.152 39.4142 46.2186C34.5274 51.1054 30.3634 55.2694 22.5819 57.801C20.0468 53.4571 16.246 46.7616 12.8083 40.9686C22.0389 37.3476 27.4687 31.9178 32.5353 26.8512C37.4221 21.9644 41.5826 17.6206 49.3676 15.2688ZM52.9852 6.94434C26.5626 11.8311 28.3714 31.5582 1.94531 36.445L18.9575 65.9456C45.3836 61.0588 43.5748 41.3318 70.0009 36.445L52.9852 6.94434Z" fill="#DA3A4A"/>
<path d="M42.7761 32.6303C46.1765 38.5182 45.983 44.9903 42.3485 47.0909C38.7105 49.1882 33.0093 46.1203 29.6089 40.2325C26.2119 34.3446 26.4054 27.8725 30.0399 25.7719C33.6745 23.6746 39.3791 26.7425 42.776 32.6303" fill="#DA3A4A"/>
<path d="M47.4223 13.3245C50.6802 18.9341 54.3012 25.27 57.1959 30.1568C47.9653 33.7778 42.5355 39.2076 37.4689 44.2743C32.5821 49.1611 28.4181 53.325 20.6366 55.8566C18.1015 51.5128 14.3007 44.8172 10.8629 39.0243C20.0936 35.4033 25.5234 29.9735 30.59 24.9069C35.4768 20.0201 39.6373 15.6763 47.4223 13.3245ZM51.0399 5C24.6173 9.8868 26.4261 29.6138 0 34.5006L17.0122 64.0013C43.4382 59.1145 41.6295 39.3874 68.0556 34.5006L51.0399 5Z" fill="#383838"/>
<path d="M40.8315 30.686C44.2319 36.5739 44.0385 43.0459 40.4039 45.1466C36.766 47.2439 31.0647 44.176 27.6643 38.2881C24.2673 32.4003 24.4608 25.9282 28.0953 23.8275C31.7299 21.7303 37.4346 24.7981 40.8314 30.686" fill="#383838"/>
</g>
<defs>
<clipPath id="clip0">
<rect width="70" height="70" fill="white"/>
</clipPath>
</defs>
</svg>
