<svg width="70" height="70" viewBox="0 0 70 70" fill="none" xmlns="http://www.w3.org/2000/svg">
<g clip-path="url(#clip0)">
<path d="M24.6291 51.8521C22.1252 51.8549 20.0949 53.8852 20.092 56.3891V70.0002H29.1661V56.3891C29.1633 53.8852 27.1329 51.8549 24.6291 51.8521Z" fill="#DA3A4A"/>
<path d="M45.0471 1.94449H4.21383C2.96328 1.94733 1.94814 2.96245 1.94531 4.21301V67.7315C1.94815 68.982 2.96328 69.9972 4.21383 70H15.5564V56.3889C15.5564 51.3783 19.6199 47.3148 24.6305 47.3148C29.641 47.3148 33.7045 51.3783 33.7045 56.3889V70H42.7786V22.3611C42.7814 21.5473 43.2181 20.7959 43.927 20.3932C44.6331 19.9906 45.5037 19.9962 46.204 20.4102L47.3156 21.0681V4.21285C47.3127 2.9623 46.2976 1.94717 45.0471 1.94434L45.0471 1.94449ZM17.8249 42.7778H13.2879C12.0345 42.7778 11.0194 41.7627 11.0194 40.5093C11.0194 39.2559 12.0345 38.2408 13.2879 38.2408H17.8249C19.0783 38.2408 20.0934 39.2559 20.0934 40.5093C20.0934 41.7627 19.0783 42.7778 17.8249 42.7778ZM17.8249 33.7037H13.2879C12.0345 33.7037 11.0194 32.6886 11.0194 31.4352C11.0194 30.1818 12.0345 29.1667 13.2879 29.1667H17.8249C19.0783 29.1667 20.0934 30.1818 20.0934 31.4352C20.0934 32.6886 19.0783 33.7037 17.8249 33.7037ZM17.8249 24.6297H13.2879C12.0345 24.6297 11.0194 23.6145 11.0194 22.3611C11.0194 21.1078 12.0345 20.0926 13.2879 20.0926H17.8249C19.0783 20.0926 20.0934 21.1078 20.0934 22.3611C20.0934 23.6145 19.0783 24.6297 17.8249 24.6297ZM17.8249 15.5556H13.2879C12.0345 15.5556 11.0194 14.5405 11.0194 13.2871C11.0194 12.0337 12.0345 11.0186 13.2879 11.0186H17.8249C19.0783 11.0186 20.0934 12.0337 20.0934 13.2871C20.0934 14.5405 19.0783 15.5556 17.8249 15.5556ZM35.9731 42.7778H31.436C30.1826 42.7778 29.1675 41.7627 29.1675 40.5093C29.1675 39.2559 30.1826 38.2408 31.436 38.2408H35.9731C37.2264 38.2408 38.2416 39.2559 38.2416 40.5093C38.2416 41.7627 37.2264 42.7778 35.9731 42.7778ZM35.9731 33.7037H31.436C30.1826 33.7037 29.1675 32.6886 29.1675 31.4352C29.1675 30.1818 30.1826 29.1667 31.436 29.1667H35.9731C37.2264 29.1667 38.2416 30.1818 38.2416 31.4352C38.2416 32.6886 37.2264 33.7037 35.9731 33.7037ZM35.9731 24.6297H31.436C30.1826 24.6297 29.1675 23.6145 29.1675 22.3611C29.1675 21.1078 30.1826 20.0926 31.436 20.0926H35.9731C37.2264 20.0926 38.2416 21.1078 38.2416 22.3611C38.2416 23.6145 37.2264 24.6297 35.9731 24.6297ZM35.9731 15.5556H31.436C30.1826 15.5556 29.1675 14.5405 29.1675 13.2871C29.1675 12.0337 30.1826 11.0186 31.436 11.0186H35.9731C37.2264 11.0186 38.2416 12.0337 38.2416 13.2871C38.2416 14.5405 37.2264 15.5556 35.9731 15.5556Z" fill="#DA3A4A"/>
<path d="M68.888 34.0213L47.3142 21.0679V69.9996H67.7309C68.9814 69.9968 69.9965 68.9816 69.9994 67.7311V35.9718C70.005 35.1693 69.5797 34.4264 68.8878 34.0209L68.888 34.0213ZM58.6568 60.9255H54.1198C52.8664 60.9255 51.8512 59.9104 51.8512 58.657C51.8512 57.4036 52.8664 56.3885 54.1198 56.3885H58.6568C59.9102 56.3885 60.9253 57.4036 60.9253 58.657C60.9253 59.9104 59.9102 60.9255 58.6568 60.9255ZM58.6568 51.8515H54.1198C52.8664 51.8515 51.8512 50.8363 51.8512 49.5829C51.8512 48.3296 52.8664 47.3144 54.1198 47.3144H58.6568C59.9102 47.3144 60.9253 48.3296 60.9253 49.5829C60.9253 50.8363 59.9102 51.8515 58.6568 51.8515ZM58.6568 42.7774H54.1198C52.8664 42.7774 51.8512 41.7623 51.8512 40.5089C51.8512 39.2555 52.8664 38.2404 54.1198 38.2404H58.6568C59.9102 38.2404 60.9253 39.2555 60.9253 40.5089C60.9253 41.7623 59.9102 42.7774 58.6568 42.7774Z" fill="#DA3A4A"/>
<path d="M22.6846 49.9077C20.1808 49.9106 18.1504 51.9409 18.1476 54.4447V68.0558H27.2216V54.4447C27.2188 51.9409 25.1885 49.9105 22.6846 49.9077Z" fill="#383838"/>
<path d="M43.1018 0.000153863H2.26852C1.01796 0.00298933 0.00283111 1.01812 0 2.26867V65.7871C0.00283546 67.0377 1.01796 68.0528 2.26852 68.0556H13.6111V54.4445C13.6111 49.434 17.6746 45.3705 22.6852 45.3705C27.6957 45.3705 31.7592 49.434 31.7592 54.4445V68.0556H40.8333V20.4168C40.8361 19.603 41.2728 18.8516 41.9817 18.4489C42.6878 18.0462 43.5583 18.0519 44.2587 18.4659L45.3703 19.1238V2.26852C45.3674 1.01796 44.3523 0.00283111 43.1017 0L43.1018 0.000153863ZM15.8796 40.8335H11.3426C10.0892 40.8335 9.07407 39.8183 9.07407 38.5649C9.07407 37.3116 10.0892 36.2964 11.3426 36.2964H15.8796C17.133 36.2964 18.1481 37.3116 18.1481 38.5649C18.1481 39.8183 17.133 40.8335 15.8796 40.8335ZM15.8796 31.7594H11.3426C10.0892 31.7594 9.07407 30.7443 9.07407 29.4909C9.07407 28.2375 10.0892 27.2224 11.3426 27.2224H15.8796C17.133 27.2224 18.1481 28.2375 18.1481 29.4909C18.1481 30.7443 17.133 31.7594 15.8796 31.7594ZM15.8796 22.6853H11.3426C10.0892 22.6853 9.07407 21.6702 9.07407 20.4168C9.07407 19.1634 10.0892 18.1483 11.3426 18.1483H15.8796C17.133 18.1483 18.1481 19.1634 18.1481 20.4168C18.1481 21.6702 17.133 22.6853 15.8796 22.6853ZM15.8796 13.6113H11.3426C10.0892 13.6113 9.07407 12.5961 9.07407 11.3427C9.07407 10.0894 10.0892 9.07422 11.3426 9.07422H15.8796C17.133 9.07422 18.1481 10.0894 18.1481 11.3427C18.1481 12.5961 17.133 13.6113 15.8796 13.6113ZM34.0277 40.8335H29.4907C28.2373 40.8335 27.2222 39.8183 27.2222 38.5649C27.2222 37.3116 28.2373 36.2964 29.4907 36.2964H34.0277C35.2811 36.2964 36.2963 37.3116 36.2963 38.5649C36.2963 39.8183 35.2811 40.8335 34.0277 40.8335ZM34.0277 31.7594H29.4907C28.2373 31.7594 27.2222 30.7443 27.2222 29.4909C27.2222 28.2375 28.2373 27.2224 29.4907 27.2224H34.0277C35.2811 27.2224 36.2963 28.2375 36.2963 29.4909C36.2963 30.7443 35.2811 31.7594 34.0277 31.7594ZM34.0277 22.6853H29.4907C28.2373 22.6853 27.2222 21.6702 27.2222 20.4168C27.2222 19.1634 28.2373 18.1483 29.4907 18.1483H34.0277C35.2811 18.1483 36.2963 19.1634 36.2963 20.4168C36.2963 21.6702 35.2811 22.6853 34.0277 22.6853ZM34.0277 13.6113H29.4907C28.2373 13.6113 27.2222 12.5961 27.2222 11.3427C27.2222 10.0894 28.2373 9.07422 29.4907 9.07422H34.0277C35.2811 9.07422 36.2963 10.0894 36.2963 11.3427C36.2963 12.5961 35.2811 13.6113 34.0277 13.6113Z" fill="#383838"/>
<path d="M66.9435 32.0767L45.3698 19.1233V68.055H65.7864C67.037 68.0522 68.0521 67.037 68.0549 65.7865V34.0273C68.0606 33.2248 67.6352 32.4818 66.9434 32.0763L66.9435 32.0767ZM56.7123 58.9809H52.1753C50.9219 58.9809 49.9068 57.9658 49.9068 56.7124C49.9068 55.459 50.9219 54.4439 52.1753 54.4439H56.7123C57.9657 54.4439 58.9808 55.459 58.9808 56.7124C58.9808 57.9658 57.9657 58.9809 56.7123 58.9809ZM56.7123 49.9069H52.1753C50.9219 49.9069 49.9068 48.8917 49.9068 47.6384C49.9068 46.385 50.9219 45.3698 52.1753 45.3698H56.7123C57.9657 45.3698 58.9808 46.385 58.9808 47.6384C58.9808 48.8917 57.9657 49.9069 56.7123 49.9069ZM56.7123 40.8328H52.1753C50.9219 40.8328 49.9068 39.8177 49.9068 38.5643C49.9068 37.3109 50.9219 36.2958 52.1753 36.2958H56.7123C57.9657 36.2958 58.9808 37.3109 58.9808 38.5643C58.9808 39.8177 57.9657 40.8328 56.7123 40.8328Z" fill="#383838"/>
</g>
<defs>
<clipPath id="clip0">
<rect width="69.9986" height="70.0003" fill="white"/>
</clipPath>
</defs>
</svg>
