<svg width="70" height="70" viewBox="0 0 70 70" fill="none" xmlns="http://www.w3.org/2000/svg">
<path d="M27.4204 26.6514C25.9908 26.4864 3.95751 23.6101 2.61197 28.2209C1.35052 32.4934 18.4641 42.3496 21.7859 44.2067H21.7439C21.7439 44.2067 11.5681 66.0765 15.5207 69.0841C19.4312 72.041 36.4607 55.4208 36.4607 55.4208L36.4187 55.3361C38.7313 57.4935 53.5744 71.3642 57.0224 68.788C60.8067 65.9961 50.2946 44.6296 50.2946 44.6296L50.0843 44.5872L50.2526 44.5028C50.2526 44.5028 71.3607 32.9543 69.9311 28.2165C68.5435 23.4745 45.0386 26.6896 45.0386 26.6896L44.9965 26.7784H44.9544C44.8283 25.8859 40.8758 3.25439 36.2925 3.25439C31.7513 3.26285 27.6727 25.4712 27.4204 26.6514Z" fill="#DA3A4A"/>
<path d="M24.8747 24.106C23.4451 23.941 1.41186 21.0647 0.066312 25.6755C-1.19513 29.948 15.9185 39.8042 19.2403 41.6613H19.1982C19.1982 41.6613 9.02249 63.5311 12.975 66.5387C16.8855 69.4956 33.9151 52.8754 33.9151 52.8754L33.873 52.7907C36.1856 54.9481 51.0288 68.8187 54.4767 66.2426C58.2611 63.4507 47.749 42.0842 47.749 42.0842L47.5387 42.0418L47.7069 41.9574C47.7069 41.9574 68.8151 30.4089 67.3854 25.6711C65.9978 20.9291 42.493 24.1442 42.493 24.1442L42.4509 24.233H42.4088C42.2826 23.3405 38.3301 0.708984 33.7469 0.708984C29.2057 0.717445 25.127 22.9258 24.8747 24.106Z" fill="#383838"/>
</svg>
